<mxfile host="drawio-plugin" agent="Mozilla/5.0 (Macintosh; Intel Mac OS X 10_15_7) AppleWebKit/537.36 (KHTML, like Gecko) Chrome/122.0.0.0 Safari/537.36" modified="2025-07-01T12:30:19.105Z" etag="6vY_cqSb_1KrDRqkdbCU" version="22.1.22" type="embed">
  <diagram name="Seite-1" id="f3Rf5XTVuwHkTZ7F2tCT">
    <mxGraphModel dx="1415" dy="1664" grid="1" gridSize="10" guides="1" tooltips="1" connect="1" arrows="1" fold="1" page="1" pageScale="1" pageWidth="1169" pageHeight="827" math="0" shadow="0">
      <root>
        <mxCell id="0" />
        <mxCell id="1" parent="0" />
        <mxCell id="T5nE4E2PpQ_50jrhzj2m-6" style="edgeStyle=orthogonalEdgeStyle;rounded=1;orthogonalLoop=1;jettySize=auto;html=1;entryX=0.5;entryY=0;entryDx=0;entryDy=0;" parent="1" source="T5nE4E2PpQ_50jrhzj2m-1" target="T5nE4E2PpQ_50jrhzj2m-4" edge="1">
          <mxGeometry relative="1" as="geometry">
            <Array as="points">
              <mxPoint x="580" y="20" />
              <mxPoint x="739" y="20" />
            </Array>
          </mxGeometry>
        </mxCell>
        <mxCell id="T5nE4E2PpQ_50jrhzj2m-53" style="edgeStyle=orthogonalEdgeStyle;rounded=1;orthogonalLoop=1;jettySize=auto;html=1;entryX=0.5;entryY=0;entryDx=0;entryDy=0;" parent="1" source="T5nE4E2PpQ_50jrhzj2m-1" target="T5nE4E2PpQ_50jrhzj2m-2" edge="1">
          <mxGeometry relative="1" as="geometry">
            <Array as="points">
              <mxPoint x="580" y="20" />
              <mxPoint x="420" y="20" />
            </Array>
          </mxGeometry>
        </mxCell>
        <mxCell id="T5nE4E2PpQ_50jrhzj2m-1" value="total dataset&lt;div&gt;(464.786 files)&lt;/div&gt;" style="rounded=1;whiteSpace=wrap;html=1;" parent="1" vertex="1">
          <mxGeometry x="520" y="-60" width="120" height="60" as="geometry" />
        </mxCell>
        <mxCell id="3" style="edgeStyle=orthogonalEdgeStyle;rounded=1;orthogonalLoop=1;jettySize=auto;html=1;entryX=0.5;entryY=0;entryDx=0;entryDy=0;" parent="1" source="T5nE4E2PpQ_50jrhzj2m-2" target="T5nE4E2PpQ_50jrhzj2m-79" edge="1">
          <mxGeometry relative="1" as="geometry" />
        </mxCell>
        <mxCell id="4" style="edgeStyle=orthogonalEdgeStyle;rounded=1;orthogonalLoop=1;jettySize=auto;html=1;entryX=0.5;entryY=0;entryDx=0;entryDy=0;" parent="1" source="T5nE4E2PpQ_50jrhzj2m-2" target="2" edge="1">
          <mxGeometry relative="1" as="geometry" />
        </mxCell>
        <mxCell id="T5nE4E2PpQ_50jrhzj2m-2" value="contains copyrights or holders or authors&lt;div&gt;(164.578 files)&lt;/div&gt;" style="rounded=1;whiteSpace=wrap;html=1;" parent="1" vertex="1">
          <mxGeometry x="360" y="40" width="120" height="60" as="geometry" />
        </mxCell>
        <mxCell id="Zs75Lp3gZ29Dc7brr3NT-27" style="edgeStyle=orthogonalEdgeStyle;rounded=1;orthogonalLoop=1;jettySize=auto;html=1;entryX=0.5;entryY=0;entryDx=0;entryDy=0;" parent="1" source="T5nE4E2PpQ_50jrhzj2m-4" target="T5nE4E2PpQ_50jrhzj2m-52" edge="1">
          <mxGeometry relative="1" as="geometry" />
        </mxCell>
        <mxCell id="T5nE4E2PpQ_50jrhzj2m-4" value="no copyrights or holders or authors&lt;div&gt;(300.208 files)&lt;/div&gt;" style="rounded=1;whiteSpace=wrap;html=1;" parent="1" vertex="1">
          <mxGeometry x="679" y="40" width="120" height="60" as="geometry" />
        </mxCell>
        <mxCell id="T5nE4E2PpQ_50jrhzj2m-33" style="edgeStyle=orthogonalEdgeStyle;rounded=1;orthogonalLoop=1;jettySize=auto;html=1;entryX=0.5;entryY=0;entryDx=0;entryDy=0;" parent="1" source="T5nE4E2PpQ_50jrhzj2m-7" target="T5nE4E2PpQ_50jrhzj2m-31" edge="1">
          <mxGeometry relative="1" as="geometry">
            <Array as="points">
              <mxPoint x="340" y="430" />
              <mxPoint x="180" y="430" />
            </Array>
          </mxGeometry>
        </mxCell>
        <mxCell id="T5nE4E2PpQ_50jrhzj2m-34" style="edgeStyle=orthogonalEdgeStyle;rounded=1;orthogonalLoop=1;jettySize=auto;html=1;entryX=0.5;entryY=0;entryDx=0;entryDy=0;" parent="1" source="T5nE4E2PpQ_50jrhzj2m-7" target="T5nE4E2PpQ_50jrhzj2m-29" edge="1">
          <mxGeometry relative="1" as="geometry">
            <Array as="points">
              <mxPoint x="340" y="430" />
              <mxPoint x="500" y="430" />
            </Array>
          </mxGeometry>
        </mxCell>
        <mxCell id="T5nE4E2PpQ_50jrhzj2m-7" value="exact match&lt;div&gt;(45.833 files)&lt;/div&gt;" style="rounded=1;whiteSpace=wrap;html=1;" parent="1" vertex="1">
          <mxGeometry x="280" y="350" width="120" height="60" as="geometry" />
        </mxCell>
        <mxCell id="Zs75Lp3gZ29Dc7brr3NT-20" style="edgeStyle=orthogonalEdgeStyle;rounded=1;orthogonalLoop=1;jettySize=auto;html=1;entryX=0.5;entryY=0;entryDx=0;entryDy=0;" parent="1" source="T5nE4E2PpQ_50jrhzj2m-9" target="T5nE4E2PpQ_50jrhzj2m-11" edge="1">
          <mxGeometry relative="1" as="geometry" />
        </mxCell>
        <mxCell id="Zs75Lp3gZ29Dc7brr3NT-21" style="edgeStyle=orthogonalEdgeStyle;rounded=1;orthogonalLoop=1;jettySize=auto;html=1;entryX=0.5;entryY=0;entryDx=0;entryDy=0;" parent="1" source="T5nE4E2PpQ_50jrhzj2m-9" target="Zs75Lp3gZ29Dc7brr3NT-4" edge="1">
          <mxGeometry relative="1" as="geometry" />
        </mxCell>
        <mxCell id="Zs75Lp3gZ29Dc7brr3NT-22" style="edgeStyle=orthogonalEdgeStyle;rounded=1;orthogonalLoop=1;jettySize=auto;html=1;entryX=0.5;entryY=0;entryDx=0;entryDy=0;" parent="1" source="T5nE4E2PpQ_50jrhzj2m-9" target="Zs75Lp3gZ29Dc7brr3NT-2" edge="1">
          <mxGeometry relative="1" as="geometry">
            <Array as="points">
              <mxPoint x="980" y="430" />
              <mxPoint x="739" y="430" />
            </Array>
          </mxGeometry>
        </mxCell>
        <mxCell id="Zs75Lp3gZ29Dc7brr3NT-23" style="edgeStyle=orthogonalEdgeStyle;rounded=1;orthogonalLoop=1;jettySize=auto;html=1;entryX=0.5;entryY=0;entryDx=0;entryDy=0;" parent="1" source="T5nE4E2PpQ_50jrhzj2m-9" target="T5nE4E2PpQ_50jrhzj2m-13" edge="1">
          <mxGeometry relative="1" as="geometry">
            <Array as="points">
              <mxPoint x="980" y="430" />
              <mxPoint x="1219" y="430" />
            </Array>
          </mxGeometry>
        </mxCell>
        <mxCell id="T5nE4E2PpQ_50jrhzj2m-9" value="no exact match&lt;div&gt;(94.193 files)&lt;/div&gt;" style="rounded=1;whiteSpace=wrap;html=1;" parent="1" vertex="1">
          <mxGeometry x="920" y="350" width="120" height="60" as="geometry" />
        </mxCell>
        <mxCell id="30" style="edgeStyle=orthogonalEdgeStyle;rounded=1;orthogonalLoop=1;jettySize=auto;html=1;entryX=0.5;entryY=0;entryDx=0;entryDy=0;" parent="1" source="T5nE4E2PpQ_50jrhzj2m-11" target="28" edge="1">
          <mxGeometry relative="1" as="geometry">
            <Array as="points">
              <mxPoint x="900" y="530" />
              <mxPoint x="1059" y="530" />
            </Array>
          </mxGeometry>
        </mxCell>
        <mxCell id="T5nE4E2PpQ_50jrhzj2m-11" value="exact match without format&lt;div&gt;(5.750 files)&lt;/div&gt;" style="rounded=1;whiteSpace=wrap;html=1;" parent="1" vertex="1">
          <mxGeometry x="840" y="450" width="120" height="60" as="geometry" />
        </mxCell>
        <mxCell id="33" style="edgeStyle=orthogonalEdgeStyle;rounded=1;orthogonalLoop=1;jettySize=auto;html=1;entryX=0.5;entryY=0;entryDx=0;entryDy=0;" parent="1" source="T5nE4E2PpQ_50jrhzj2m-13" target="28" edge="1">
          <mxGeometry relative="1" as="geometry">
            <Array as="points">
              <mxPoint x="1219" y="530" />
              <mxPoint x="1059" y="530" />
            </Array>
          </mxGeometry>
        </mxCell>
        <mxCell id="T5nE4E2PpQ_50jrhzj2m-13" value="no exact match for other reasons&lt;br&gt;&lt;div&gt;(26.762 files)&lt;/div&gt;" style="rounded=1;whiteSpace=wrap;html=1;" parent="1" vertex="1">
          <mxGeometry x="1159" y="450" width="120" height="60" as="geometry" />
        </mxCell>
        <mxCell id="T5nE4E2PpQ_50jrhzj2m-19" value="&lt;b&gt;contains no copyrights&lt;/b&gt;&lt;div&gt;&lt;b&gt;(11.029 files)&lt;/b&gt;&lt;/div&gt;" style="rounded=1;whiteSpace=wrap;html=1;" parent="1" vertex="1">
          <mxGeometry x="520" y="250" width="120" height="60" as="geometry" />
        </mxCell>
        <mxCell id="T5nE4E2PpQ_50jrhzj2m-23" style="edgeStyle=orthogonalEdgeStyle;rounded=1;orthogonalLoop=1;jettySize=auto;html=1;entryX=0.5;entryY=0;entryDx=0;entryDy=0;" parent="1" source="T5nE4E2PpQ_50jrhzj2m-21" target="T5nE4E2PpQ_50jrhzj2m-7" edge="1">
          <mxGeometry relative="1" as="geometry" />
        </mxCell>
        <mxCell id="T5nE4E2PpQ_50jrhzj2m-63" style="edgeStyle=orthogonalEdgeStyle;rounded=1;orthogonalLoop=1;jettySize=auto;html=1;exitX=0.5;exitY=1;exitDx=0;exitDy=0;entryX=0.5;entryY=0;entryDx=0;entryDy=0;" parent="1" source="T5nE4E2PpQ_50jrhzj2m-21" target="T5nE4E2PpQ_50jrhzj2m-9" edge="1">
          <mxGeometry relative="1" as="geometry" />
        </mxCell>
        <mxCell id="T5nE4E2PpQ_50jrhzj2m-21" value="contains copyrights&lt;div&gt;(140.027 files)&lt;/div&gt;" style="rounded=1;whiteSpace=wrap;html=1;" parent="1" vertex="1">
          <mxGeometry x="360" y="250" width="120" height="60" as="geometry" />
        </mxCell>
        <mxCell id="T5nE4E2PpQ_50jrhzj2m-39" style="edgeStyle=orthogonalEdgeStyle;rounded=1;orthogonalLoop=1;jettySize=auto;html=1;entryX=0.5;entryY=0;entryDx=0;entryDy=0;" parent="1" source="T5nE4E2PpQ_50jrhzj2m-29" target="T5nE4E2PpQ_50jrhzj2m-35" edge="1">
          <mxGeometry relative="1" as="geometry" />
        </mxCell>
        <mxCell id="T5nE4E2PpQ_50jrhzj2m-40" style="edgeStyle=orthogonalEdgeStyle;rounded=1;orthogonalLoop=1;jettySize=auto;html=1;entryX=0.5;entryY=0;entryDx=0;entryDy=0;" parent="1" source="T5nE4E2PpQ_50jrhzj2m-29" target="T5nE4E2PpQ_50jrhzj2m-36" edge="1">
          <mxGeometry relative="1" as="geometry" />
        </mxCell>
        <mxCell id="T5nE4E2PpQ_50jrhzj2m-29" value="multiple-copyrights&lt;div&gt;(5.672 files)&lt;/div&gt;" style="rounded=1;whiteSpace=wrap;html=1;" parent="1" vertex="1">
          <mxGeometry x="440" y="450" width="120" height="60" as="geometry" />
        </mxCell>
        <mxCell id="T5nE4E2PpQ_50jrhzj2m-30" value="&lt;b&gt;contains authors&lt;/b&gt;&lt;div&gt;&lt;b&gt;(5.729 files)&lt;/b&gt;&lt;/div&gt;" style="rounded=1;whiteSpace=wrap;html=1;" parent="1" vertex="1">
          <mxGeometry x="40" y="550" width="120" height="60" as="geometry" />
        </mxCell>
        <mxCell id="T5nE4E2PpQ_50jrhzj2m-37" style="edgeStyle=orthogonalEdgeStyle;rounded=1;orthogonalLoop=1;jettySize=auto;html=1;entryX=0.5;entryY=0;entryDx=0;entryDy=0;" parent="1" source="T5nE4E2PpQ_50jrhzj2m-31" target="T5nE4E2PpQ_50jrhzj2m-30" edge="1">
          <mxGeometry relative="1" as="geometry" />
        </mxCell>
        <mxCell id="T5nE4E2PpQ_50jrhzj2m-38" style="edgeStyle=orthogonalEdgeStyle;rounded=1;orthogonalLoop=1;jettySize=auto;html=1;" parent="1" source="T5nE4E2PpQ_50jrhzj2m-31" target="T5nE4E2PpQ_50jrhzj2m-32" edge="1">
          <mxGeometry relative="1" as="geometry" />
        </mxCell>
        <mxCell id="T5nE4E2PpQ_50jrhzj2m-31" value="single-copyright&lt;div&gt;&lt;span style=&quot;white-space: pre;&quot;&gt;(40.161 files)&lt;/span&gt;&lt;/div&gt;" style="rounded=1;whiteSpace=wrap;html=1;" parent="1" vertex="1">
          <mxGeometry x="120" y="450" width="120" height="60" as="geometry" />
        </mxCell>
        <mxCell id="T5nE4E2PpQ_50jrhzj2m-32" value="&lt;b&gt;contains no authors&lt;/b&gt;&lt;div&gt;&lt;b&gt;(34.432 files)&lt;/b&gt;&lt;/div&gt;" style="rounded=1;whiteSpace=wrap;html=1;" parent="1" vertex="1">
          <mxGeometry x="200" y="550" width="120" height="60" as="geometry" />
        </mxCell>
        <mxCell id="T5nE4E2PpQ_50jrhzj2m-35" value="&lt;b&gt;contains authors&lt;/b&gt;&lt;div&gt;&lt;b&gt;(1.792 files)&lt;/b&gt;&lt;/div&gt;" style="rounded=1;whiteSpace=wrap;html=1;" parent="1" vertex="1">
          <mxGeometry x="360" y="550" width="120" height="60" as="geometry" />
        </mxCell>
        <mxCell id="T5nE4E2PpQ_50jrhzj2m-36" value="&lt;b&gt;contains no authors&lt;/b&gt;&lt;div&gt;&lt;b&gt;(3.880 files)&lt;/b&gt;&lt;/div&gt;" style="rounded=1;whiteSpace=wrap;html=1;" parent="1" vertex="1">
          <mxGeometry x="520" y="550" width="120" height="60" as="geometry" />
        </mxCell>
        <mxCell id="T5nE4E2PpQ_50jrhzj2m-52" value="&lt;b&gt;sample of files without copyrights, holders, authors&lt;/b&gt;" style="rounded=1;whiteSpace=wrap;html=1;" parent="1" vertex="1">
          <mxGeometry x="679" y="140" width="120" height="60" as="geometry" />
        </mxCell>
        <mxCell id="T5nE4E2PpQ_50jrhzj2m-74" value="" style="verticalLabelPosition=bottom;verticalAlign=top;html=1;shape=mxgraph.basic.tick;fillColor=#d5e8d4;strokeColor=#82b366;rounded=1;" parent="1" vertex="1">
          <mxGeometry x="150" y="540" width="20" height="20" as="geometry" />
        </mxCell>
        <mxCell id="T5nE4E2PpQ_50jrhzj2m-75" value="" style="verticalLabelPosition=bottom;verticalAlign=top;html=1;shape=mxgraph.basic.tick;fillColor=#d5e8d4;strokeColor=#82b366;rounded=1;" parent="1" vertex="1">
          <mxGeometry x="310" y="540" width="20" height="20" as="geometry" />
        </mxCell>
        <mxCell id="T5nE4E2PpQ_50jrhzj2m-76" value="" style="verticalLabelPosition=bottom;verticalAlign=top;html=1;shape=mxgraph.basic.tick;fillColor=#d5e8d4;strokeColor=#82b366;rounded=1;" parent="1" vertex="1">
          <mxGeometry x="470" y="540" width="20" height="20" as="geometry" />
        </mxCell>
        <mxCell id="T5nE4E2PpQ_50jrhzj2m-77" value="" style="verticalLabelPosition=bottom;verticalAlign=top;html=1;shape=mxgraph.basic.tick;fillColor=#d5e8d4;strokeColor=#82b366;rounded=1;" parent="1" vertex="1">
          <mxGeometry x="630" y="540" width="20" height="20" as="geometry" />
        </mxCell>
        <mxCell id="T5nE4E2PpQ_50jrhzj2m-78" value="" style="verticalLabelPosition=bottom;verticalAlign=top;html=1;shape=mxgraph.basic.tick;fillColor=#d5e8d4;strokeColor=#82b366;rounded=1;" parent="1" vertex="1">
          <mxGeometry x="630" y="240" width="20" height="20" as="geometry" />
        </mxCell>
        <mxCell id="T5nE4E2PpQ_50jrhzj2m-79" value="duplicates&lt;div&gt;(13.627 files)&lt;/div&gt;" style="rounded=1;whiteSpace=wrap;html=1;" parent="1" vertex="1">
          <mxGeometry x="280" y="147" width="120" height="60" as="geometry" />
        </mxCell>
        <mxCell id="Zs75Lp3gZ29Dc7brr3NT-24" style="edgeStyle=orthogonalEdgeStyle;rounded=1;orthogonalLoop=1;jettySize=auto;html=1;entryX=0.5;entryY=0;entryDx=0;entryDy=0;" parent="1" source="Zs75Lp3gZ29Dc7brr3NT-2" target="Zs75Lp3gZ29Dc7brr3NT-18" edge="1">
          <mxGeometry relative="1" as="geometry" />
        </mxCell>
        <mxCell id="Zs75Lp3gZ29Dc7brr3NT-2" value="exact match without case-sensitivity&lt;div&gt;(57.514 files)&lt;/div&gt;" style="rounded=1;whiteSpace=wrap;html=1;" parent="1" vertex="1">
          <mxGeometry x="679" y="450" width="120" height="60" as="geometry" />
        </mxCell>
        <mxCell id="29" style="edgeStyle=orthogonalEdgeStyle;rounded=1;orthogonalLoop=1;jettySize=auto;html=1;entryX=0.5;entryY=0;entryDx=0;entryDy=0;" parent="1" source="Zs75Lp3gZ29Dc7brr3NT-4" target="28" edge="1">
          <mxGeometry relative="1" as="geometry" />
        </mxCell>
        <mxCell id="Zs75Lp3gZ29Dc7brr3NT-4" value="exact match without format &amp;amp; case-sen.&lt;div&gt;(4.167 files)&lt;/div&gt;" style="rounded=1;whiteSpace=wrap;html=1;" parent="1" vertex="1">
          <mxGeometry x="999" y="450" width="120" height="60" as="geometry" />
        </mxCell>
        <mxCell id="12" style="edgeStyle=orthogonalEdgeStyle;rounded=1;orthogonalLoop=1;jettySize=auto;html=1;entryX=0.5;entryY=0;entryDx=0;entryDy=0;" parent="1" source="Zs75Lp3gZ29Dc7brr3NT-18" target="10" edge="1">
          <mxGeometry relative="1" as="geometry">
            <Array as="points">
              <mxPoint x="739" y="630" />
              <mxPoint x="580" y="630" />
            </Array>
          </mxGeometry>
        </mxCell>
        <mxCell id="13" style="edgeStyle=orthogonalEdgeStyle;rounded=1;orthogonalLoop=1;jettySize=auto;html=1;entryX=0.5;entryY=0;entryDx=0;entryDy=0;" parent="1" source="Zs75Lp3gZ29Dc7brr3NT-18" target="11" edge="1">
          <mxGeometry relative="1" as="geometry">
            <Array as="points">
              <mxPoint x="739" y="630" />
              <mxPoint x="900" y="630" />
            </Array>
          </mxGeometry>
        </mxCell>
        <mxCell id="Zs75Lp3gZ29Dc7brr3NT-18" value="restored case&lt;div&gt;(57.337 files)&lt;/div&gt;" style="rounded=1;whiteSpace=wrap;html=1;" parent="1" vertex="1">
          <mxGeometry x="679" y="550" width="120" height="60" as="geometry" />
        </mxCell>
        <mxCell id="6" style="edgeStyle=orthogonalEdgeStyle;rounded=1;orthogonalLoop=1;jettySize=auto;html=1;entryX=0.5;entryY=0;entryDx=0;entryDy=0;" parent="1" source="2" target="T5nE4E2PpQ_50jrhzj2m-21" edge="1">
          <mxGeometry relative="1" as="geometry" />
        </mxCell>
        <mxCell id="7" style="edgeStyle=orthogonalEdgeStyle;rounded=1;orthogonalLoop=1;jettySize=auto;html=1;" parent="1" source="2" target="T5nE4E2PpQ_50jrhzj2m-19" edge="1">
          <mxGeometry relative="1" as="geometry" />
        </mxCell>
        <mxCell id="2" value="unique files&lt;br&gt;(150.951 files)" style="rounded=1;whiteSpace=wrap;html=1;" parent="1" vertex="1">
          <mxGeometry x="440" y="147" width="120" height="60" as="geometry" />
        </mxCell>
        <mxCell id="34" style="edgeStyle=orthogonalEdgeStyle;rounded=1;orthogonalLoop=1;jettySize=auto;html=1;entryX=0.5;entryY=0;entryDx=0;entryDy=0;" parent="1" source="10" target="20" edge="1">
          <mxGeometry relative="1" as="geometry" />
        </mxCell>
        <mxCell id="35" style="edgeStyle=orthogonalEdgeStyle;rounded=1;orthogonalLoop=1;jettySize=auto;html=1;entryX=0.5;entryY=0;entryDx=0;entryDy=0;" parent="1" source="10" target="21" edge="1">
          <mxGeometry relative="1" as="geometry" />
        </mxCell>
        <mxCell id="10" value="single-copyright&lt;div&gt;&lt;span style=&quot;white-space: pre;&quot;&gt;(50.051 files)&lt;/span&gt;&lt;/div&gt;" style="rounded=1;whiteSpace=wrap;html=1;" parent="1" vertex="1">
          <mxGeometry x="520" y="650" width="120" height="60" as="geometry" />
        </mxCell>
        <mxCell id="36" style="edgeStyle=orthogonalEdgeStyle;rounded=1;orthogonalLoop=1;jettySize=auto;html=1;entryX=0.5;entryY=0;entryDx=0;entryDy=0;" parent="1" source="11" target="14" edge="1">
          <mxGeometry relative="1" as="geometry" />
        </mxCell>
        <mxCell id="37" style="edgeStyle=orthogonalEdgeStyle;rounded=1;orthogonalLoop=1;jettySize=auto;html=1;" parent="1" source="11" target="15" edge="1">
          <mxGeometry relative="1" as="geometry" />
        </mxCell>
        <mxCell id="11" value="multiple-copyrights&lt;div&gt;(7.286 files)&lt;/div&gt;" style="rounded=1;whiteSpace=wrap;html=1;" parent="1" vertex="1">
          <mxGeometry x="840" y="650" width="120" height="60" as="geometry" />
        </mxCell>
        <mxCell id="14" value="&lt;b&gt;contains authors&lt;/b&gt;&lt;div&gt;&lt;b&gt;(1.405 files)&lt;/b&gt;&lt;/div&gt;" style="rounded=1;whiteSpace=wrap;html=1;" parent="1" vertex="1">
          <mxGeometry x="760" y="750" width="120" height="60" as="geometry" />
        </mxCell>
        <mxCell id="15" value="&lt;b&gt;contains no authors&lt;/b&gt;&lt;div&gt;&lt;b&gt;(5.881 files)&lt;/b&gt;&lt;/div&gt;" style="rounded=1;whiteSpace=wrap;html=1;" parent="1" vertex="1">
          <mxGeometry x="920" y="750" width="120" height="60" as="geometry" />
        </mxCell>
        <mxCell id="16" value="" style="verticalLabelPosition=bottom;verticalAlign=top;html=1;shape=mxgraph.basic.tick;fillColor=#d5e8d4;strokeColor=#82b366;rounded=1;" parent="1" vertex="1">
          <mxGeometry x="870" y="740" width="20" height="20" as="geometry" />
        </mxCell>
        <mxCell id="17" value="" style="verticalLabelPosition=bottom;verticalAlign=top;html=1;shape=mxgraph.basic.tick;fillColor=#d5e8d4;strokeColor=#82b366;rounded=1;" parent="1" vertex="1">
          <mxGeometry x="1030" y="740" width="20" height="20" as="geometry" />
        </mxCell>
        <mxCell id="20" value="&lt;b&gt;contains authors&lt;/b&gt;&lt;div&gt;&lt;b&gt;(13.906 files)&lt;/b&gt;&lt;/div&gt;" style="rounded=1;whiteSpace=wrap;html=1;" parent="1" vertex="1">
          <mxGeometry x="440" y="750" width="120" height="60" as="geometry" />
        </mxCell>
        <mxCell id="21" value="&lt;b&gt;contains no authors&lt;/b&gt;&lt;div&gt;&lt;b&gt;(36.145 files)&lt;/b&gt;&lt;/div&gt;" style="rounded=1;whiteSpace=wrap;html=1;" parent="1" vertex="1">
          <mxGeometry x="600" y="750" width="120" height="60" as="geometry" />
        </mxCell>
        <mxCell id="23" value="" style="verticalLabelPosition=bottom;verticalAlign=top;html=1;shape=mxgraph.basic.tick;fillColor=#d5e8d4;strokeColor=#82b366;rounded=1;" parent="1" vertex="1">
          <mxGeometry x="710" y="740" width="20" height="20" as="geometry" />
        </mxCell>
        <mxCell id="27" value="" style="verticalLabelPosition=bottom;verticalAlign=top;html=1;shape=mxgraph.basic.tick;fillColor=#d5e8d4;strokeColor=#82b366;rounded=1;" parent="1" vertex="1">
          <mxGeometry x="545" y="740" width="20" height="20" as="geometry" />
        </mxCell>
        <mxCell id="28" value="manually restored&lt;br&gt;(currently 639 files)" style="rounded=1;whiteSpace=wrap;html=1;" parent="1" vertex="1">
          <mxGeometry x="999" y="550" width="120" height="60" as="geometry" />
        </mxCell>
        <mxCell id="38" value="" style="verticalLabelPosition=bottom;verticalAlign=top;html=1;shape=mxgraph.basic.tick;fillColor=#d5e8d4;strokeColor=#82b366;rounded=1;" vertex="1" parent="1">
          <mxGeometry x="1110" y="540" width="20" height="20" as="geometry" />
        </mxCell>
        <mxCell id="40" value="" style="verticalLabelPosition=bottom;verticalAlign=top;html=1;shape=mxgraph.basic.tick;fillColor=#d5e8d4;strokeColor=#82b366;rounded=1;" vertex="1" parent="1">
          <mxGeometry x="790" y="130" width="20" height="20" as="geometry" />
        </mxCell>
      </root>
    </mxGraphModel>
  </diagram>
</mxfile>
